<svg xmlns="http://www.w3.org/2000/svg" version="1.1" xmlns:xlink="http://www.w3.org/1999/xlink" xmlns:svgjs="http://svgjs.dev/svgjs" width="800" height="257" viewBox="1 0 0 0"><g transform="matrix(1,0,0,1,-1.2121212121212466,0.15486885447035093)"><svg viewBox="0 0 396 51" data-background-color="#113826" preserveAspectRatio="xMidYMid meet" height="400" width="600" xmlns="http://www.w3.org/2000/svg" xmlns:xlink="http://www.w3.org/1999/xlink"><g id="tight-bounds" transform="matrix(1,0,0,1,0.2400000000000091,-0.030732729875438736)"><svg viewBox="0 0 395.52 51.061465459750856" height="51.061465459750856" width="395.52"><g><svg viewBox="0 0 461.17584681034987 59.53760763748491" height="51.061465459750856" width="395.52"><g transform="matrix(1,0,0,1,65.6558468103499,16.81060566885641)"><svg viewBox="0 0 395.52 25.916396299772085" height="25.916396299772085" width="395.52"><g id="textblocktransform"><svg viewBox="0 0 395.52 25.916396299772085" height="25.916396299772085" width="395.52" id="textblock"><g><svg viewBox="0 0 395.52 25.916396299772085" height="25.916396299772085" width="395.52"><g transform="matrix(1,0,0,1,0,0)"><svg width="395.52" viewBox="1.95 -36.84 728.3499999999999 47.730000000000004" height="25.916396299772085" data-palette-color="#ffbf00"><path d="M26.49-9.25L29.39-9.25 29.39-1.15Q29.27-1.1 27.84-0.61 26.42-0.12 24.19 0.34 21.97 0.81 19.41 0.81L19.41 0.81Q15.21 0.81 11.96-0.65 8.72-2.1 6.48-4.59 4.25-7.08 3.1-10.24 1.95-13.4 1.95-16.85L1.95-16.85Q1.95-22.02 4.15-25.96 6.35-29.91 10.29-32.13 14.23-34.35 19.46-34.35L19.46-34.35Q21.9-34.35 24.13-33.84 26.37-33.33 29.39-32.4L29.39-32.4 29.39-24.56 26.39-24.56 25.66-29.1Q25.56-29.52 25.29-29.83 25.02-30.15 24.8-30.25L24.8-30.25 24.61-30.35Q23.97-30.64 22.71-31.09 21.44-31.54 19.7-31.54L19.7-31.54Q16.31-31.54 13.59-29.87 10.86-28.2 9.28-24.93 7.69-21.66 7.69-16.85L7.69-16.85Q7.69-9.86 11.06-5.91 14.43-1.95 20.36-1.95L20.36-1.95Q22.12-1.95 23.22-2.37 24.32-2.78 24.39-2.81L24.39-2.81Q25.17-3.1 25.34-3.81L25.34-3.81 26.49-9.25ZM56.83-12.01L56.83-12.01Q56.83-8.47 55.37-5.6 53.9-2.73 51.23-1.06 48.56 0.61 44.89 0.61L44.89 0.61Q41.26 0.61 38.6-1.05 35.94-2.71 34.49-5.57 33.05-8.42 33.05-12.01L33.05-12.01Q33.05-15.58 34.51-18.46 35.96-21.34 38.66-23.02 41.35-24.71 45.04-24.71L45.04-24.71Q48.78-24.71 51.41-23 54.05-21.29 55.44-18.41 56.83-15.53 56.83-12.01ZM51.63-12.06L51.63-12.06Q51.63-14.79 50.91-17.16 50.19-19.53 48.72-21 47.24-22.46 44.99-22.46L44.99-22.46Q42.67-22.46 41.2-21 39.72-19.53 39.01-17.16 38.3-14.79 38.3-12.06L38.3-12.06Q38.3-9.35 39.02-6.97 39.74-4.59 41.22-3.13 42.7-1.66 44.94-1.66L44.94-1.66Q47.24-1.66 48.72-3.13 50.19-4.59 50.91-6.96 51.63-9.33 51.63-12.06ZM72.04-1.95L72.04 0 59.88 0 59.88-1.95 62.54-2.1Q62.89-2.1 63.26-2.47 63.64-2.83 63.64-3.15L63.64-3.15 63.64-33.25 59.83-33.25 59.83-34.91 66.23-36.84 68.28-36.84 68.28-3.15Q68.28-2.83 68.65-2.47 69.01-2.1 69.33-2.1L69.33-2.1 72.04-1.95ZM91.57-7.25L91.57-7.25Q91.57-3.56 89.03-1.48 86.49 0.61 82.02 0.61L82.02 0.61Q79.73 0.61 77.79 0.13 75.85-0.34 75.09-0.66L75.09-0.66 75.09-7.3 77.63-7.3 78.24-3.05Q79-2.56 80.11-2.11 81.22-1.66 82.68-1.66L82.68-1.66Q84.83-1.66 86-2.86 87.18-4.05 87.18-5.54L87.18-5.54Q87.18-7.52 85.76-8.53 84.34-9.55 81.73-10.79L81.73-10.79 81.07-11.11Q78.34-12.4 76.88-13.81 75.43-15.21 75.43-17.46L75.43-17.46Q75.43-20.8 77.78-22.75 80.12-24.71 84.44-24.71L84.44-24.71Q86.64-24.71 88.36-24.3 90.08-23.9 90.84-23.56L90.84-23.56 90.84-17.65 88.22-17.65 87.83-21.14Q87.3-21.56 86.25-21.92 85.2-22.29 84.03-22.29L84.03-22.29Q81.97-22.29 80.97-21.35 79.97-20.41 79.97-18.95L79.97-18.95Q79.97-17.26 81.18-16.27 82.39-15.28 85.56-13.84L85.56-13.84Q88.18-12.65 89.87-11.17 91.57-9.69 91.57-7.25ZM109.93-3.05L109.93-3.05 109.93-1.05Q109.93-1.05 108.99-0.63 108.05-0.22 106.52 0.2 104.99 0.61 103.19 0.61L103.19 0.61Q100.38 0.61 99.1-0.72 97.82-2.05 97.82-5L97.82-5 97.82-21.61 94.62-21.61 94.62-23.24 98.04-24.85 100.28-30.15 102.48-30.15 102.48-24.1 109.54-24.1 109.54-21.61 102.48-21.61 102.48-7.64Q102.48-4.66 103.48-3.43 104.48-2.2 106.48-2.2L106.48-2.2Q107.95-2.2 108.94-2.62 109.93-3.05 109.93-3.05ZM135.75-12.01L135.75-12.01Q135.75-8.47 134.29-5.6 132.82-2.73 130.15-1.06 127.48 0.61 123.82 0.61L123.82 0.61Q120.18 0.61 117.52-1.05 114.86-2.71 113.42-5.57 111.97-8.42 111.97-12.01L111.97-12.01Q111.97-15.58 113.43-18.46 114.88-21.34 117.58-23.02 120.28-24.71 123.96-24.71L123.96-24.71Q127.7-24.71 130.33-23 132.97-21.29 134.36-18.41 135.75-15.53 135.75-12.01ZM130.55-12.06L130.55-12.06Q130.55-14.79 129.83-17.16 129.11-19.53 127.64-21 126.16-22.46 123.91-22.46L123.91-22.46Q121.59-22.46 120.12-21 118.64-19.53 117.93-17.16 117.22-14.79 117.22-12.06L117.22-12.06Q117.22-9.35 117.94-6.97 118.66-4.59 120.14-3.13 121.62-1.66 123.86-1.66L123.86-1.66Q126.16-1.66 127.64-3.13 129.11-4.59 129.83-6.96 130.55-9.33 130.55-12.06ZM164.8-1.95L164.8 0 153.77 0 153.77-1.95 155.87-2.1Q156.31-2.15 156.61-2.44 156.92-2.73 156.92-3.2L156.92-3.2 156.92-16.21Q156.92-18.58 155.82-19.81 154.72-21.04 152.11-21.04L152.11-21.04Q150.69-21.04 149.29-20.64 147.89-20.24 146.62-19.6L146.62-19.6 146.62-3.2Q146.62-2.17 147.67-2.1L147.67-2.1 149.77-1.95 149.77 0 138.46 0 138.46-1.95 140.9-2.1Q141.95-2.17 141.95-3.2L141.95-3.2 141.95-20.56 138.46-20.56 138.46-22.19 144.57-24.1 146.62-24.1 146.62-21.61Q148.72-22.8 150.92-23.75 153.13-24.71 154.87-24.71L154.87-24.71Q158.14-24.71 159.85-22.67 161.56-20.63 161.56-16.99L161.56-16.99 161.56-3.2Q161.56-2.73 161.86-2.44 162.17-2.15 162.61-2.1L162.61-2.1 164.8-1.95ZM234.36-33.54L234.36-31.4 231.3-30.81 223.66 0.81 220 0.81 211.65-26.9 203.47 0.81 199.86 0.81 191.7-30.81 188.8-31.4 188.8-33.54 200.25-33.54 200.25-31.4 197.27-31.1Q196.71-31.03 196.71-30.37L196.71-30.37Q196.71-30.3 196.76-30.1L196.76-30.1 202.71-7.54 210.55-33.54 214.41-33.54 222.47-6.74 228.01-30.1Q228.03-30.15 228.03-30.27L228.03-30.27Q228.03-31.03 227.3-31.1L227.3-31.1 224.15-31.4 224.15-33.54 234.36-33.54ZM257.67-5.54L257.67-2.49Q255.57-1.2 253.14-0.29 250.71 0.61 248.17 0.61L248.17 0.61Q245.14 0.61 242.49-0.74 239.85-2.1 238.21-4.86 236.57-7.62 236.57-11.79L236.57-11.79Q236.57-15.7 238.09-18.6 239.6-21.51 242.26-23.11 244.92-24.71 248.32-24.71L248.32-24.71Q252.98-24.71 255.32-21.81 257.67-18.92 257.67-14.45L257.67-14.45Q257.67-14.21 257.67-13.81 257.67-13.4 257.62-13.06L257.62-13.06 241.41-13.06Q241.41-11.16 241.81-9.27 242.21-7.37 243.17-5.83 244.12-4.3 245.73-3.37 247.34-2.44 249.76-2.44L249.76-2.44Q251.91-2.44 253.94-3.43 255.98-4.42 257.67-5.54L257.67-5.54ZM241.68-15.31L252.66-15.31 252.66-16.41Q252.66-18.87 251.48-20.56 250.29-22.24 247.8-22.24L247.8-22.24Q245.34-22.24 243.61-20.39 241.87-18.53 241.68-15.31L241.68-15.31ZM272.88-1.95L272.88 0 260.72 0 260.72-1.95 263.38-2.1Q263.72-2.1 264.1-2.47 264.48-2.83 264.48-3.15L264.48-3.15 264.48-33.25 260.67-33.25 260.67-34.91 267.06-36.84 269.12-36.84 269.12-3.15Q269.12-2.83 269.48-2.47 269.85-2.1 270.17-2.1L270.17-2.1 272.88-1.95ZM287.72-1.95L287.72 0 275.56 0 275.56-1.95 278.22-2.1Q278.56-2.1 278.94-2.47 279.32-2.83 279.32-3.15L279.32-3.15 279.32-33.25 275.51-33.25 275.51-34.91 281.91-36.84 283.96-36.84 283.96-3.15Q283.96-2.83 284.32-2.47 284.69-2.1 285.01-2.1L285.01-2.1 287.72-1.95ZM315.3-12.4L315.3-12.4Q315.3-8.47 313.79-5.54 312.27-2.61 309.44-1 306.61 0.61 302.66 0.61L302.66 0.61Q301.75 0.61 300.71 0.49 299.68 0.37 298.94 0.26 298.21 0.15 298.21 0.15L298.21 0.15 298.21 7.59Q298.21 8.06 298.53 8.33 298.85 8.59 299.31 8.64L299.31 8.64 302.26 8.96 302.26 10.89 290.11 10.89 290.11 8.96 292.5 8.64Q293.55 8.57 293.55 7.59L293.55 7.59 293.55-20.56 290.11-20.56 290.11-22.19 296.26-24.1 298.21-24.1 298.21-21.61Q298.21-21.61 298.83-22.07 299.46-22.53 300.52-23.16 301.58-23.78 302.94-24.24 304.29-24.71 305.76-24.71L305.76-24.71Q308.34-24.71 310.5-23.18 312.67-21.66 313.98-18.9 315.3-16.14 315.3-12.4ZM310.3-11.69L310.3-11.69Q310.3-14.28 309.5-16.43 308.71-18.58 307.16-19.89 305.61-21.19 303.31-21.19L303.31-21.19Q302.07-21.19 300.9-20.83 299.73-20.46 298.97-20.08 298.21-19.7 298.21-19.7L298.21-19.7 298.21-2.49Q298.21-2.49 299.47-2.1 300.73-1.71 302.26-1.71L302.26-1.71Q305.02-1.71 306.79-3.13 308.56-4.54 309.43-6.82 310.3-9.11 310.3-11.69ZM341.62-1.95L341.62 0 334.22 0 333.56-2.95Q333.56-2.95 332.82-2.42 332.07-1.88 330.85-1.17 329.63-0.46 328.15 0.07 326.68 0.61 325.21 0.61L325.21 0.61Q322.5 0.61 320.61-1.2 318.72-3 318.72-6.15L318.72-6.15Q318.72-7.54 319.22-8.74 319.72-9.94 321.22-11.02 322.72-12.11 325.69-13.15 328.65-14.18 333.56-15.26L333.56-15.26 333.56-17.41Q333.56-22.34 328.9-22.34L328.9-22.34Q327.6-22.34 326.66-22.09 325.72-21.85 325.36-21.7L325.36-21.7 325.36-17.36 321.72-17.36Q321.04-17.36 320.45-17.61 319.86-17.87 319.86-18.8L319.86-18.8Q319.86-20.85 321.43-22.16 322.99-23.46 325.39-24.08 327.8-24.71 330.27-24.71L330.27-24.71Q333.37-24.71 335.07-23.74 336.78-22.78 337.47-21.08 338.15-19.38 338.15-17.21L338.15-17.21 338.15-3.2Q338.15-2.73 338.46-2.44 338.76-2.15 339.2-2.1L339.2-2.1 341.62-1.95ZM333.56-4.71L333.56-4.71 333.56-13.35Q330.19-12.52 328.2-11.68 326.21-10.84 325.24-10 324.26-9.16 323.95-8.29 323.65-7.42 323.65-6.49L323.65-6.49Q323.65-4.96 324.64-3.65 325.63-2.34 327.41-2.34L327.41-2.34Q328.41-2.34 329.48-2.7 330.56-3.05 331.49-3.53 332.41-4 332.99-4.36 333.56-4.71 333.56-4.71ZM361.49-23.95L361.49-18.99 359.54-18.99Q359.07-19.56 358.42-19.96 357.78-20.36 356.85-20.36L356.85-20.36Q355.65-20.36 354.4-19.53 353.14-18.7 351.84-17.26L351.84-17.26 351.84-3.2Q351.84-2.15 352.89-2.1L352.89-2.1 356.19-1.95 356.19 0 343.69 0 343.69-1.9 346.16-2.1Q346.6-2.15 346.9-2.44 347.21-2.73 347.21-3.2L347.21-3.2 347.21-20.56 343.59-20.56 343.59-22.19 349.79-24.1 351.84-24.1 351.84-19.65Q352.58-20.46 353.68-21.66 354.77-22.85 356.02-23.78 357.26-24.71 358.44-24.71L358.44-24.71Q359.22-24.71 360.12-24.46 361.02-24.22 361.49-23.95L361.49-23.95ZM388.19-1.95L388.19 0 380.19 0 380.19-1.95 373.94-11.35 371.15-11.35 371.15-3.2Q371.15-2.17 372.2-2.1L372.2-2.1 374.35-1.95 374.35 0 363 0 363-1.95 365.44-2.1Q366.49-2.17 366.49-3.2L366.49-3.2 366.49-33.25 362.71-33.25 362.71-34.91 369.1-36.84 371.15-36.84 371.15-12.79 372.15-12.79 379.5-21.09Q379.6-21.22 379.6-21.41L379.6-21.41Q379.6-21.9 379.09-21.95L379.09-21.95 377.04-22.14 377.04-24.1 386.75-24.1 386.75-22.14 383.56-21.8 376.94-14.75 385.56-2.25 388.19-1.95ZM438.21-23.46L438.21-23.46Q438.21-19.8 436.48-17.38 434.75-14.97 431.82-13.76 428.89-12.55 425.3-12.55L425.3-12.55 425.15-12.55Q424.18-12.55 422.99-12.63 421.81-12.72 421.61-12.74L421.61-12.74 421.61-3.44Q421.61-3.08 421.87-2.73 422.13-2.39 422.66-2.34L422.66-2.34 425.96-2.15 425.96 0 412.82 0 412.82-2.15 415.46-2.34Q416-2.39 416.28-2.73 416.56-3.08 416.56-3.44L416.56-3.44 416.56-30.1Q416.56-30.47 416.28-30.82 416-31.18 415.46-31.2L415.46-31.2 412.46-31.4 412.46-33.54 424.42-33.54Q431.5-33.54 434.86-31.27 438.21-29 438.21-23.46ZM433.01-23.39L433.01-23.39Q433.01-27.03 430.98-29.06 428.94-31.1 424.15-31.1L424.15-31.1Q423.47-31.1 422.54-31.08 421.61-31.05 421.61-31.05L421.61-31.05 421.61-15.31Q421.73-15.31 422.72-15.17 423.71-15.04 424.42-15.04L424.42-15.04 424.57-15.04Q428.45-15.04 430.73-17.07 433.01-19.09 433.01-23.39ZM464.77-1.95L464.77 0 457.38 0 456.72-2.95Q456.72-2.95 455.97-2.42 455.23-1.88 454.01-1.17 452.79-0.46 451.31 0.07 449.83 0.61 448.37 0.61L448.37 0.61Q445.66 0.61 443.77-1.2 441.87-3 441.87-6.15L441.87-6.15Q441.87-7.54 442.37-8.74 442.87-9.94 444.38-11.02 445.88-12.11 448.84-13.15 451.81-14.18 456.72-15.26L456.72-15.26 456.72-17.41Q456.72-22.34 452.05-22.34L452.05-22.34Q450.76-22.34 449.82-22.09 448.88-21.85 448.51-21.7L448.51-21.7 448.51-17.36 444.88-17.36Q444.19-17.36 443.61-17.61 443.02-17.87 443.02-18.8L443.02-18.8Q443.02-20.85 444.58-22.16 446.15-23.46 448.55-24.08 450.96-24.71 453.42-24.71L453.42-24.71Q456.52-24.71 458.23-23.74 459.94-22.78 460.62-21.08 461.31-19.38 461.31-17.21L461.31-17.21 461.31-3.2Q461.31-2.73 461.61-2.44 461.92-2.15 462.36-2.1L462.36-2.1 464.77-1.95ZM456.72-4.71L456.72-4.71 456.72-13.35Q453.35-12.52 451.36-11.68 449.37-10.84 448.39-10 447.42-9.16 447.11-8.29 446.81-7.42 446.81-6.49L446.81-6.49Q446.81-4.96 447.79-3.65 448.78-2.34 450.57-2.34L450.57-2.34Q451.57-2.34 452.64-2.7 453.71-3.05 454.64-3.53 455.57-4 456.14-4.36 456.72-4.71 456.72-4.71ZM484.64-23.95L484.64-18.99 482.69-18.99Q482.23-19.56 481.58-19.96 480.93-20.36 480.01-20.36L480.01-20.36Q478.81-20.36 477.55-19.53 476.3-18.7 475-17.26L475-17.26 475-3.2Q475-2.15 476.05-2.1L476.05-2.1 479.35-1.95 479.35 0 466.85 0 466.85-1.9 469.31-2.1Q469.75-2.15 470.06-2.44 470.36-2.73 470.36-3.2L470.36-3.2 470.36-20.56 466.75-20.56 466.75-22.19 472.95-24.1 475-24.1 475-19.65Q475.73-20.46 476.83-21.66 477.93-22.85 479.18-23.78 480.42-24.71 481.59-24.71L481.59-24.71Q482.37-24.71 483.28-24.46 484.18-24.22 484.64-23.95L484.64-23.95ZM496.04-32.35L496.04-32.35Q496.04-31.08 495.16-30.16 494.29-29.25 493.02-29.25L493.02-29.25Q491.75-29.25 490.83-30.16 489.92-31.08 489.92-32.35L489.92-32.35Q489.92-33.64 490.83-34.52 491.75-35.4 493.02-35.4L493.02-35.4Q494.29-35.4 495.16-34.52 496.04-33.64 496.04-32.35ZM498.61-1.95L498.61 0 486.86 0 486.86-1.95 489.31-2.1Q490.36-2.17 490.36-3.2L490.36-3.2 490.36-21.04 486.91-21.04 486.91-22.8 493.02-24.71 494.99-24.71 494.99-3.2Q494.99-2.73 495.3-2.44 495.6-2.15 496.04-2.1L496.04-2.1 498.61-1.95ZM518.5-7.25L518.5-7.25Q518.5-3.56 515.96-1.48 513.42 0.61 508.96 0.61L508.96 0.61Q506.66 0.61 504.72 0.13 502.78-0.34 502.02-0.66L502.02-0.66 502.02-7.3 504.56-7.3 505.17-3.05Q505.93-2.56 507.04-2.11 508.15-1.66 509.62-1.66L509.62-1.66Q511.76-1.66 512.94-2.86 514.11-4.05 514.11-5.54L514.11-5.54Q514.11-7.52 512.69-8.53 511.28-9.55 508.66-10.79L508.66-10.79 508-11.11Q505.27-12.4 503.82-13.81 502.36-15.21 502.36-17.46L502.36-17.46Q502.36-20.8 504.71-22.75 507.05-24.71 511.37-24.71L511.37-24.71Q513.57-24.71 515.29-24.3 517.01-23.9 517.77-23.56L517.77-23.56 517.77-17.65 515.16-17.65 514.77-21.14Q514.23-21.56 513.18-21.92 512.13-22.29 510.96-22.29L510.96-22.29Q508.91-22.29 507.91-21.35 506.91-20.41 506.91-18.95L506.91-18.95Q506.91-17.26 508.11-16.27 509.32-15.28 512.5-13.84L512.5-13.84Q515.11-12.65 516.81-11.17 518.5-9.69 518.5-7.25ZM547.75-1.95L547.75 0 536.61 0 536.61-1.95 538.67-2.1Q539.11-2.15 539.43-2.44 539.76-2.73 539.76-3.2L539.76-3.2 539.76-16.09Q539.76-18.24 538.74-19.64 537.71-21.04 534.81-21.04L534.81-21.04Q533.49-21.04 531.96-20.63 530.44-20.21 529.36-19.6L529.36-19.6 529.36-3.2Q529.36-2.17 530.36-2.1L530.36-2.1 532.51-1.95 532.51 0 521.26 0 521.26-1.95 523.65-2.1Q524.7-2.17 524.7-3.2L524.7-3.2 524.7-33.25 520.97-33.25 520.97-34.91 527.36-36.84 529.36-36.84 529.36-21.61Q530.27-22.17 531.71-22.89 533.15-23.61 534.74-24.16 536.32-24.71 537.62-24.71L537.62-24.71Q540.5-24.71 542.45-22.85 544.4-21 544.4-17.14L544.4-17.14 544.4-3.2Q544.4-2.73 544.73-2.44 545.06-2.15 545.5-2.1L545.5-2.1 547.75-1.95ZM597.91-9.25L600.82-9.25 600.82-1.15Q600.7-1.1 599.27-0.61 597.84-0.12 595.62 0.34 593.4 0.81 590.83 0.81L590.83 0.81Q586.63 0.81 583.39-0.65 580.14-2.1 577.91-4.59 575.67-7.08 574.52-10.24 573.38-13.4 573.38-16.85L573.38-16.85Q573.38-22.02 575.57-25.96 577.77-29.91 581.71-32.13 585.66-34.35 590.88-34.35L590.88-34.35Q593.32-34.35 595.56-33.84 597.79-33.33 600.82-32.4L600.82-32.4 600.82-24.56 597.82-24.56 597.08-29.1Q596.99-29.52 596.72-29.83 596.45-30.15 596.23-30.25L596.23-30.25 596.03-30.35Q595.4-30.64 594.13-31.09 592.86-31.54 591.13-31.54L591.13-31.54Q587.73-31.54 585.01-29.87 582.29-28.2 580.7-24.93 579.11-21.66 579.11-16.85L579.11-16.85Q579.11-9.86 582.48-5.91 585.85-1.95 591.79-1.95L591.79-1.95Q593.54-1.95 594.64-2.37 595.74-2.78 595.81-2.81L595.81-2.81Q596.6-3.1 596.77-3.81L596.77-3.81 597.91-9.25ZM630.31-1.95L630.31 0 619.18 0 619.18-1.95 621.23-2.1Q621.67-2.15 622-2.44 622.33-2.73 622.33-3.2L622.33-3.2 622.33-16.09Q622.33-18.24 621.3-19.64 620.27-21.04 617.37-21.04L617.37-21.04Q616.05-21.04 614.52-20.63 613-20.21 611.92-19.6L611.92-19.6 611.92-3.2Q611.92-2.17 612.93-2.1L612.93-2.1 615.07-1.95 615.07 0 603.82 0 603.82-1.95 606.21-2.1Q607.26-2.17 607.26-3.2L607.26-3.2 607.26-33.25 603.53-33.25 603.53-34.91 609.92-36.84 611.92-36.84 611.92-21.61Q612.83-22.17 614.27-22.89 615.71-23.61 617.3-24.16 618.88-24.71 620.18-24.71L620.18-24.71Q623.06-24.71 625.01-22.85 626.96-21 626.96-17.14L626.96-17.14 626.96-3.2Q626.96-2.73 627.29-2.44 627.62-2.15 628.06-2.1L628.06-2.1 630.31-1.95ZM658.87-1.95L658.87 0 650.94 0 650.94-2.86Q650.08-2.2 648.76-1.39 647.44-0.59 645.93 0.01 644.42 0.61 642.93 0.61L642.93 0.61Q639.71 0.61 637.86-1.33 636.02-3.27 636.02-7.5L636.02-7.5 636.02-21.04 632.53-21.04 632.53-22.75 638.68-24.71 640.68-24.71 640.68-8.45Q640.68-5.79 641.77-4.3 642.85-2.81 645.52-2.81L645.52-2.81Q647.05-2.81 648.54-3.33 650.03-3.86 650.94-4.3L650.94-4.3 650.94-21.04 647.42-21.04 647.42-22.75 653.52-24.71 655.57-24.71 655.57-3.2Q655.57-2.73 655.9-2.44 656.23-2.15 656.67-2.1L656.67-2.1 658.87-1.95ZM678.96-23.95L678.96-18.99 677.01-18.99Q676.54-19.56 675.9-19.96 675.25-20.36 674.32-20.36L674.32-20.36Q673.13-20.36 671.87-19.53 670.61-18.7 669.32-17.26L669.32-17.26 669.32-3.2Q669.32-2.15 670.37-2.1L670.37-2.1 673.66-1.95 673.66 0 661.16 0 661.16-1.9 663.63-2.1Q664.07-2.15 664.37-2.44 664.68-2.73 664.68-3.2L664.68-3.2 664.68-20.56 661.07-20.56 661.07-22.19 667.27-24.1 669.32-24.1 669.32-19.65Q670.05-20.46 671.15-21.66 672.25-22.85 673.49-23.78 674.74-24.71 675.91-24.71L675.91-24.71Q676.69-24.71 677.59-24.46 678.5-24.22 678.96-23.95L678.96-23.95ZM701.08-4.71L701.08-4.71 701.08-1.86Q699.39-0.95 697.28-0.17 695.17 0.61 692.63 0.61L692.63 0.61Q689.14 0.61 686.56-1.03 683.99-2.66 682.58-5.48 681.18-8.3 681.18-11.89L681.18-11.89Q681.18-16.09 682.85-18.95 684.52-21.8 687.27-23.25 690.02-24.71 693.22-24.71L693.22-24.71Q696.51-24.71 698.75-23.43 700.98-22.14 700.98-19.7L700.98-19.7Q700.98-18.24 700.06-17.49 699.15-16.75 698.03-16.75L698.03-16.75Q697.2-16.75 696.59-17.03 695.97-17.31 695.51-17.6L695.51-17.6 695.51-21.95Q694.36-22.61 693.41-22.61L693.41-22.61Q691.19-22.61 689.59-21.3 687.99-20 687.14-17.72 686.28-15.45 686.28-12.55L686.28-12.55Q686.28-9.79 687.21-7.51 688.14-5.22 689.98-3.88 691.82-2.54 694.56-2.54L694.56-2.54Q696.29-2.54 697.88-3.1 699.47-3.66 701.08-4.71ZM730.3-1.95L730.3 0 719.17 0 719.17-1.95 721.22-2.1Q721.66-2.15 721.99-2.44 722.32-2.73 722.32-3.2L722.32-3.2 722.32-16.09Q722.32-18.24 721.29-19.64 720.26-21.04 717.36-21.04L717.36-21.04Q716.04-21.04 714.51-20.63 712.99-20.21 711.91-19.6L711.91-19.6 711.91-3.2Q711.91-2.17 712.92-2.1L712.92-2.1 715.06-1.95 715.06 0 703.81 0 703.81-1.95 706.2-2.1Q707.25-2.17 707.25-3.2L707.25-3.2 707.25-33.25 703.52-33.25 703.52-34.91 709.91-36.84 711.91-36.84 711.91-21.61Q712.82-22.17 714.26-22.89 715.7-23.61 717.29-24.16 718.87-24.71 720.17-24.71L720.17-24.71Q723.05-24.71 725-22.85 726.95-21 726.95-17.14L726.95-17.14 726.95-3.2Q726.95-2.73 727.28-2.44 727.61-2.15 728.05-2.1L728.05-2.1 730.3-1.95Z" opacity="1" transform="matrix(1,0,0,1,0,0)" fill="#ffbf00" class="wordmark-text-0" data-fill-palette-color="primary" id="text-0"></path></svg></g></svg></g></svg></g></svg></g><g><svg viewBox="0 0 59.53760763748491 59.53760763748491" height="59.53760763748491" width="59.53760763748491"><g><svg></svg></g><g id="icon-0"><svg viewBox="0 0 59.53760763748491 59.53760763748491" height="59.53760763748491" width="59.53760763748491"><g><rect width="54.13512101852795" height="54.13512101852795" x="2.701243309478482" y="2.701243309478482" fill="#ffbf00" data-fill-palette-color="accent"></rect><rect width="54.13512101852795" height="54.13512101852795" x="5.402486618956964" y="0" fill="#ffbf00" opacity="0.5" data-fill-palette-color="accent"></rect></g><g transform="matrix(1,0,0,1,16.858777478103526,7.717838027081378)"><svg viewBox="0 0 25.820052681277858 44.101931583322155" height="44.101931583322155" width="25.820052681277858"><g><svg xmlns="http://www.w3.org/2000/svg" xmlns:xlink="http://www.w3.org/1999/xlink" version="1.1" x="0" y="0" viewBox="33.036 21.461 33.92699999999999 57.949" enable-background="new 0 0 100 100" xml:space="preserve" height="44.101931583322155" width="25.820052681277858" class="icon-cg-0" data-fill-palette-color="quaternary" id="cg-0"><polygon fill="#113826" points="66.963,37.999 52,37.999 52,21.461 48,21.461 48,37.999 33.036,37.999 33.036,41.999 48,41.999   48,79.41 52,79.41 52,41.999 66.963,41.999 " data-fill-palette-color="quaternary"></polygon></svg></g></svg></g></svg></g></svg></g></svg></g><defs></defs></svg><rect width="395.52" height="51.061465459750856" fill="none" stroke="none" visibility="hidden"></rect></g></svg></g></svg>